<svg width="101" height="101" viewBox="0 0 101 101" fill="none" xmlns="http://www.w3.org/2000/svg">
<g clip-path="url(#clip0_74_3)">
<path d="M50.5 0.5C40.611 0.5 30.944 3.43245 22.7215 8.92652C14.4991 14.4206 8.09043 22.2295 4.30605 31.3658C0.521664 40.5021 -0.468503 50.5555 1.46076 60.2545C3.39002 69.9536 8.15206 78.8627 15.1447 85.8553C22.1373 92.848 31.0465 97.61 40.7455 99.5393C50.4446 101.469 60.4979 100.478 69.6342 96.694C78.7705 92.9096 86.5794 86.501 92.0735 78.2785C97.5676 70.0561 100.5 60.3891 100.5 50.5C100.486 37.2436 95.2132 24.5342 85.8395 15.1605C76.4658 5.78678 63.7564 0.514338 50.5 0.5ZM67.1667 54.6667H54.6667V67.1667C54.6667 68.2717 54.2277 69.3316 53.4463 70.113C52.6649 70.8944 51.6051 71.3333 50.5 71.3333C49.395 71.3333 48.3351 70.8944 47.5537 70.113C46.7723 69.3316 46.3334 68.2717 46.3334 67.1667V54.6667H33.8334C32.7283 54.6667 31.6685 54.2277 30.8871 53.4463C30.1057 52.6649 29.6667 51.6051 29.6667 50.5C29.6667 49.3949 30.1057 48.3351 30.8871 47.5537C31.6685 46.7723 32.7283 46.3333 33.8334 46.3333H46.3334V33.8333C46.3334 32.7283 46.7723 31.6685 47.5537 30.8871C48.3351 30.1057 49.395 29.6667 50.5 29.6667C51.6051 29.6667 52.6649 30.1057 53.4463 30.8871C54.2277 31.6685 54.6667 32.7283 54.6667 33.8333V46.3333H67.1667C68.2718 46.3333 69.3316 46.7723 70.113 47.5537C70.8944 48.3351 71.3334 49.3949 71.3334 50.5C71.3334 51.6051 70.8944 52.6649 70.113 53.4463C69.3316 54.2277 68.2718 54.6667 67.1667 54.6667Z" fill="#C99191"/>
</g>
<defs>
<clipPath id="clip0_74_3">
<rect width="100" height="100" fill="white" transform="translate(0.5 0.5)"/>
</clipPath>
</defs>
</svg>
